<?xml version="1.0" encoding="UTF-8" standalone="no"?><svg xmlns="http://www.w3.org/2000/svg" xmlns:xlink="http://www.w3.org/1999/xlink" fill="#fbfdfd" height="172.2" preserveAspectRatio="xMidYMid meet" version="1" viewBox="0.0 0.0 113.3 172.2" width="113.3" zoomAndPan="magnify"><g id="change1_1"><path d="M38.6920776,124.8231812c1.8173828,2.9967651,3.5944824,5.8285522,5.2819214,8.4467773 c0.2097778,0.3254395,0.4160156,0.6429443,0.6229248,0.961853c5.9505615,9.1708984,10.6951294,15.6044922,12.067627,17.4356689 c1.3607178-1.8352051,6.0583496-8.2717896,11.9624023-17.4456177c0.2047119-0.3180542,0.4100342-0.6375732,0.6175537-0.9620972 c1.6760254-2.621521,3.440918-5.4542847,5.2481689-8.454895c0.1843872-0.3061523,0.3690186-0.6129761,0.5542603-0.9226685 C87.9152832,102.3710327,102.6665039,72.5724487,102.6665039,49c0-47.625-41.2915039-49-46-49 c-7.5024414,0-18.8056641,2.4018555-28.0288086,9.1430664c-11.9248047,8.7158203-17.9711914,22.3496094-17.9711914,40.5234375 c0,23.4813843,14.6353149,52.9291382,27.4671631,74.2349854C38.3204956,124.211731,38.5060425,124.5164185,38.6920776,124.8231812z M56.6665039,29c9.6494141,0,17.5,7.8505859,17.5,17.5s-7.8505859,17.5-17.5,17.5s-17.5-7.8505859-17.5-17.5 S47.0170898,29,56.6665039,29z"/></g><g id="change1_2"><path d="M84.4862671,126.5528564c-1.6098633,2.8320313-3.21521,5.5759277-4.7974854,8.2174683 c15.49823,3.0422974,24.6442261,8.784668,24.6442261,13.1461792c0,5.8838501-16.6342773,14.2828979-43.0770264,15.1686401 c-0.4147339,0.013916-0.8312988,0.0263672-1.2508545,0.036499c-1.0986328,0.0266113-2.2077026,0.0448608-3.338623,0.0448608 c-1.1444092,0-2.2664795-0.0187988-3.3778076-0.0460205c-0.4208374-0.0103149-0.8390503-0.022583-1.2550659-0.0366211 C25.6160278,162.1903687,9,153.7971191,9,147.9165039c0-4.3450928,9.0767822-10.0609131,24.4690552-13.1119995 c-1.5909424-2.6379395-3.2045288-5.380188-4.8216553-8.2084351C12.2628784,130.2987671,0,137.4748535,0,147.9165039 c0,15.9204102,28.5068359,24.25,56.6665039,24.25s56.6665039-8.3295898,56.6665039-24.25 C113.3330078,137.4328613,100.9698486,130.2423706,84.4862671,126.5528564z"/></g></svg>