<?xml version="1.0" encoding="UTF-8" standalone="no"?><svg xmlns="http://www.w3.org/2000/svg" xmlns:xlink="http://www.w3.org/1999/xlink" fill="#000000" height="3870.4" preserveAspectRatio="xMidYMid meet" version="1" viewBox="1.4 1.3 3870.3 3870.4" width="3870.3" zoomAndPan="magnify"><g id="change1_1"><path d="M3834.057,1567.578c-23.719-122.393-59.464-242.889-106.24-358.141 c-47.653-117.41-107.249-230.575-177.131-336.352c-71.644-108.443-154.975-210.428-247.679-303.123 c-92.704-92.692-194.698-176.016-303.149-247.654c-105.785-69.878-218.958-129.472-336.376-177.126 c-115.267-46.779-235.769-82.526-358.158-106.246c-121.19-23.49-245.305-35.399-368.898-35.399 c-123.59,0-247.699,11.908-368.88,35.393c-122.386,23.719-242.878,59.463-358.128,106.241 c-117.403,47.651-230.564,107.246-336.34,177.13c-108.441,71.645-210.424,154.975-303.115,247.676 C477.27,662.68,393.949,764.673,322.314,873.122c-69.876,105.787-129.464,218.957-177.109,336.366 c-46.771,115.255-82.511,235.753-106.228,358.148c-23.482,121.185-35.386,245.296-35.384,368.887 c0.002,123.59,11.912,247.701,35.398,368.884c23.72,122.391,59.462,242.885,106.236,358.136 c47.649,117.41,107.236,230.573,177.105,336.346c71.633,108.443,154.951,210.431,247.643,303.134 c92.704,92.692,194.698,176.015,303.149,247.653c105.787,69.878,218.961,129.47,336.375,177.121 c115.256,46.777,235.757,82.523,358.158,106.247c121.194,23.489,245.308,35.4,368.896,35.402h0.037 c123.58,0,247.678-11.906,368.845-35.389c122.387-23.718,242.88-59.463,358.13-106.242 c117.405-47.652,230.566-107.247,336.342-177.131c108.439-71.646,210.421-154.976,303.112-247.677s176.013-194.693,247.652-303.143 c69.877-105.781,129.471-218.95,177.125-336.363c46.777-115.26,82.523-235.757,106.245-358.146 c23.489-121.186,35.401-245.299,35.403-368.89C3869.448,1812.87,3857.542,1688.757,3834.057,1567.578z" fill="#e5e1e1"/></g><g id="change2_1"><path d="M3765.335,1580.896c-22.858-117.952-57.304-234.072-102.38-345.134 c-45.915-113.128-103.339-222.169-170.675-324.092c-69.055-104.524-149.389-202.837-238.769-292.208 c-89.38-89.37-187.702-169.696-292.236-238.747c-101.933-67.333-210.982-124.755-324.118-170.671 c-111.072-45.078-227.198-79.526-345.153-102.387c-116.814-22.641-236.447-34.12-355.579-34.12 c-119.133,0-238.761,11.478-355.562,34.114c-117.949,22.859-234.064,57.305-345.121,102.381 c-113.124,45.914-222.159,103.337-324.079,170.673c-104.52,69.054-202.831,149.386-292.201,238.766 c-89.37,89.38-169.693,187.7-238.74,292.231c-67.329,101.93-124.745,210.976-170.654,324.108 c-45.071,111.066-79.513,227.188-102.369,345.142c-22.633,116.806-34.108,236.438-34.105,355.57 c0.002,119.131,11.481,238.761,34.12,355.566c22.859,117.95,57.304,234.068,102.376,345.131 c45.91,113.125,103.325,222.165,170.651,324.088c69.043,104.522,149.36,202.835,238.73,292.214 c89.379,89.369,187.702,169.695,292.236,238.746c101.933,67.332,210.981,124.753,324.118,170.668 c111.071,45.078,227.197,79.525,345.153,102.388c116.812,22.64,236.445,34.121,355.577,34.123c0.015,0,0.022,0,0.037,0 c119.118,0,238.739-11.477,355.526-34.11c117.948-22.857,234.064-57.304,345.123-102.381 c113.123-45.915,222.158-103.338,324.079-170.675c104.519-69.055,202.829-149.388,292.2-238.768 c89.37-89.38,169.695-187.7,238.745-292.229c67.332-101.93,124.754-210.975,170.67-324.105 c45.076-111.066,79.524-227.189,102.387-345.141c22.641-116.809,34.122-236.44,34.124-355.571 C3799.448,1817.333,3787.972,1697.701,3765.335,1580.896z" fill="#fbfdfd"/></g><g id="change3_1"><path d="M690.178,3182.806c-688.74-688.816-688.816-1803.736,0-2492.628s1803.736-688.816,2492.628,0 s688.816,1803.736,0,2492.628S1379.069,3871.622,690.178,3182.806z M1936.492,295.012 c-905.083,0-1641.479,736.396-1641.479,1641.479s736.396,1641.479,1641.479,1641.479s1641.479-736.396,1641.479-1641.479 S2841.574,295.012,1936.492,295.012z" fill="#2d4669"/></g><g id="change3_2"><path d="M2518.271,1415.076c-111.272-21.861-110.894-180.184,0-204.239 c101.136-20.348,166.417,105.07,93.875,175.646C2587.593,1411.092,2552.374,1421.819,2518.271,1415.076z" fill="#2d4669"/></g><g id="change3_3"><path d="M2518.044,2980.835H1354.939c-255.454-0.333-462.458-207.337-462.791-462.791V1354.939 c0.333-255.454,207.337-462.458,462.791-462.791h1163.105c255.454,0.333,462.458,207.337,462.791,462.791v1163.105 C2980.502,2773.499,2773.499,2980.502,2518.044,2980.835z M1354.939,1013.179c-188.663,0.208-341.552,153.098-341.76,341.76 v1163.105c0.208,188.663,153.098,341.552,341.76,341.76h1163.105c188.663-0.208,341.552-153.098,341.76-341.76V1354.939 c-0.208-188.663-153.098-341.552-341.76-341.76H1354.939z" fill="#2d4669"/></g><g id="change3_4"><path d="M1936.492,2495.049c-308.482,0-558.557-250.074-558.557-558.557s250.074-558.557,558.557-558.557 s558.557,250.074,558.557,558.557l0,0C2494.673,2244.818,2244.818,2494.673,1936.492,2495.049z M1936.492,1498.966 c-241.639,0-437.526,195.887-437.526,437.526s195.887,437.526,437.526,437.526s437.526-195.887,437.526-437.526l0,0 C2373.726,1694.974,2178.01,1499.257,1936.492,1498.966z" fill="#2d4669"/></g></svg>