<?xml version="1.0" encoding="UTF-8" standalone="no"?><svg xmlns="http://www.w3.org/2000/svg" xmlns:xlink="http://www.w3.org/1999/xlink" data-name="Layer 2" fill="#fbfdfd" height="38" preserveAspectRatio="xMidYMid meet" version="1" viewBox="2.0 2.0 38.0 38.0" width="38" zoomAndPan="magnify"><g id="change1_1"><path d="M28.874,13H27v1a1,1,0,0,1-2,0V13H22v1a1,1,0,0,1-2,0V13H17v1a1,1,0,0,1-2,0V13H13.126A1.127,1.127,0,0,0,12,14.125V17H30V14.125A1.127,1.127,0,0,0,28.874,13Z" fill="inherit"/></g><g id="change1_2"><path d="M12,27.875A1.127,1.127,0,0,0,13.126,29H28.874A1.127,1.127,0,0,0,30,27.875V19H12Zm5.293-4.582a1,1,0,0,1,1.414,0L20,24.586l3.293-3.293a1,1,0,0,1,1.414,1.414l-4,4a1,1,0,0,1-1.414,0l-2-2A1,1,0,0,1,17.293,23.293Z" fill="inherit"/></g><g id="change1_3"><path d="M21,2A19,19,0,1,0,40,21,19.021,19.021,0,0,0,21,2ZM32,27.875A3.129,3.129,0,0,1,28.874,31H13.126A3.129,3.129,0,0,1,10,27.875V14.125A3.129,3.129,0,0,1,13.126,11H15V10a1,1,0,0,1,2,0v1h3V10a1,1,0,0,1,2,0v1h3V10a1,1,0,0,1,2,0v1h1.874A3.129,3.129,0,0,1,32,14.125Z" fill="inherit"/></g></svg>