<?xml version="1.0" encoding="UTF-8" standalone="no"?><svg xmlns="http://www.w3.org/2000/svg" xmlns:xlink="http://www.w3.org/1999/xlink" fill="#2d4669" height="115.7" preserveAspectRatio="xMidYMid meet" version="1" viewBox="11.7 11.7 115.7 115.7" width="115.7" zoomAndPan="magnify"><g id="change1_1"><path d="M69.498,11.666c-31.94,0-57.833,25.894-57.833,57.834c0,31.939,25.893,57.835,57.833,57.835s57.836-25.896,57.836-57.835 C127.334,37.56,101.438,11.666,69.498,11.666z M66.258,98.979H45.827c-1.777,0-3.218-1.44-3.218-3.219V74.236h23.648V98.979z M66.258,70.236H42.528c-0.672,0-1.219-0.546-1.219-1.218v-9.371c0-0.671,0.547-1.218,1.219-1.218h23.729V70.236z M55.705,52.704 c-4.136,0-7.487-2.84-7.487-6.342s3.352-6.341,7.487-6.341c4.134,0,11.569,12.683,11.569,12.683S59.839,52.704,55.705,52.704z M82.81,40.021c4.137,0,7.488,2.839,7.488,6.341s-3.352,6.342-7.488,6.342c-4.134,0-11.568,0-11.568,0S78.676,40.021,82.81,40.021z M96.346,95.76c0,1.778-1.44,3.219-3.219,3.219H72.258V74.236h23.731c0.122,0,0.236-0.027,0.356-0.036V95.76z M97.208,69.019 c0,0.671-0.547,1.218-1.219,1.218H72.258V58.43h23.731c0.672,0,1.219,0.546,1.219,1.218V69.019z" fill="inherit"/></g></svg>