<?xml version="1.0" encoding="UTF-8" standalone="no"?><svg xmlns="http://www.w3.org/2000/svg" xmlns:xlink="http://www.w3.org/1999/xlink" fill="#000000" height="1525.6" preserveAspectRatio="xMidYMid meet" version="1" viewBox="-46.0 -25.6 1020.4 1525.6" width="1020.4" zoomAndPan="magnify"><g id="change1_1"><path d="M847.21,126.03c127.15,115.38,15.05,252.64-151.87,272.37c1.46,23.3,2.94,46.63,4.42,69.93 c3.26,50.4,7.05,100.74,10.71,151.1c5.85,81.18,17.16,199.61-11.94,284.5c5,1.97,9.96,4.08,14.88,6.28 c139.82,68.35,27.5,161.78-81.32,149.79c-41.72-5.17-86.72-10.76-133.14-17.56c-4.03-0.6-8.02-1.17-12.08-1.77 c-0.51-0.08-1.03-0.17-1.54-0.23c-6.4-0.97-12.85-1.97-19.3-2.97c-5.2-0.83-10.42-1.66-15.68-2.51 c-49.43-8.02-99.74-17.62-148.88-29.58c-6.97-1.69-13.93-3.43-20.84-5.23c-2-0.54-4-1.06-6-1.57c-2.88-0.77-5.77-1.54-8.65-2.34 c-3.91-1.06-7.82-2.14-11.71-3.26c-76.32-21.5-147.96-49.65-206.64-87.72c-93.63-72.44-33.52-127.55,45.48-125.09 c1.03-2.51,2.06-4.97,3-7.4c25.1-63.5,53.85-125.49,80.78-188.25c36.26-83.18,67.73-168.43,107.9-249.84 c5.45-10.68,10.99-21.3,16.62-31.92c-110.44-62.16-167.06-189.42-44.06-263.95C370.37-25.56,526.42,1.99,648.34,36.6 C722.89,55.44,795.44,81.11,847.21,126.03z" fill="#2d4669"/></g><g id="change2_1"><path d="M486.87,1040.67c4.03,0.6,8.05,1.2,12.08,1.77c-28.32,70.44-58.19,140.28-87.89,210.18 c-26.15,50.68-83.35,241.36-137.51,247.38c-46.31-2.63-22.16-110.41-26.47-143.71c4.2-121.07,3.63-242.27,7.2-363.31 c3.88,1.11,7.79,2.2,11.71,3.26c2.88,0.8,5.77,1.57,8.65,2.34c2,0.51,4,1.05,6,1.57c6.91,1.8,13.88,3.54,20.84,5.23 c49.14,11.96,99.45,21.56,148.88,29.58c5.25,0.85,10.48,1.68,15.68,2.51c6.45,1,12.88,2,19.3,2.97 C485.84,1040.5,486.36,1040.58,486.87,1040.67z" fill="#2d4669"/></g></svg>