<?xml version="1.0" encoding="UTF-8" standalone="no"?><svg xmlns="http://www.w3.org/2000/svg" xmlns:xlink="http://www.w3.org/1999/xlink" fill="#90b2d2" height="21" preserveAspectRatio="xMidYMid meet" version="1" viewBox="2.0 2.0 21.0 21.0" width="21" zoomAndPan="magnify"><g data-name="Layer 15" id="change1_1"><path d="M12.5,2A10.5,10.5,0,1,0,23,12.5,10.51,10.51,0,0,0,12.5,2Zm5.23,10.94-8,4.21a.59.59,0,0,1-.23.05.48.48,0,0,1-.26-.07A.5.5,0,0,1,9,16.7V8.3a.5.5,0,0,1,.24-.43.5.5,0,0,1,.49,0l8,4.21a.49.49,0,0,1,0,.88Z" fill="inherit"/></g></svg>