<?xml version="1.0" encoding="UTF-8" standalone="no"?><svg xmlns="http://www.w3.org/2000/svg" xmlns:xlink="http://www.w3.org/1999/xlink" fill="#2d4669" height="484.9" preserveAspectRatio="xMidYMid meet" version="1" viewBox="11.8 13.3 488.4 484.9" width="488.4" zoomAndPan="magnify"><g id="change1_1"><path d="M351.71,271.63c-8.09-26.17-34.89-41.78-61.65-35.9c-8.87,1.95-17.08,6.15-23.84,12.21l-11.31,10.13 c-2.46,2.2-5.96,2.82-9.02,1.59L231.79,254c-8.43-3.38-17.58-4.52-26.58-3.32h0c-27.15,3.63-47,27.46-45.65,54.82v0 c0.95,19.39,9.56,37.65,23.99,50.63c28.37,25.51,57.44,46.55,87.34,62.17c4.94,2.58,11.03,1.51,14.79-2.61 c22.75-24.91,42.87-54.62,60.81-88.3C355.61,310.28,357.44,290.18,351.71,271.63L351.71,271.63z M242.29,372.97 c-0.61,1.24-1.85,1.97-3.15,1.97c-0.51,0-1.04-0.11-1.53-0.35c-1.74-0.85-2.46-2.94-1.61-4.68l54.3-111.42 c0.85-1.74,2.94-2.46,4.68-1.61c1.74,0.85,2.46,2.94,1.61,4.68L242.29,372.97z M326.72,280.56L290.44,355 c-0.61,1.24-1.85,1.97-3.15,1.97c-0.51,0-1.04-0.11-1.53-0.35c-1.74-0.85-2.46-2.94-1.61-4.68l36.28-74.45 c0.85-1.74,2.94-2.46,4.68-1.61C326.84,276.72,327.57,278.82,326.72,280.56z"/><path d="M258.39,95.35l-71.43,12.59c-1.32,0.23-2.06,1.86-1.55,3.4l9.61,28.56c0.4,1.19,1.43,1.92,2.45,1.74l62.57-11.03 c1.02-0.18,1.74-1.22,1.71-2.47L261,98.01C260.96,96.39,259.71,95.11,258.39,95.35z"/><path d="M499.14,351.52l-35.49-201.23c-2.22-12.61-14.3-21.06-26.9-18.84l-257.74,45.44l-28.43-72.62 c-1.42-3.62-1.14-7.64,0.76-11.03c1.9-3.39,5.19-5.72,9.02-6.4l115.78-20.41c4.2-0.74,8.07,0.2,10.91,2.64 c2.84,2.44,4.34,6.13,4.24,10.39l-1.47,61.09c-0.05,1.93,1.48,3.54,3.42,3.58c0.03,0,0.06,0,0.09,0c1.89,0,3.45-1.51,3.5-3.42 l1.47-61.09c0.15-6.4-2.22-12.04-6.68-15.87c-4.46-3.83-10.39-5.33-16.69-4.22L159.16,79.95c-5.9,1.04-10.97,4.64-13.91,9.86 c-2.93,5.23-3.36,11.43-1.18,17.01l27.91,71.31l-52.79,9.31l-2.07-11.72c-1.68-9.5-10.78-15.87-20.27-14.2l-39.53,6.97 c-9.5,1.68-15.87,10.77-14.2,20.27l2.07,11.72l-13.51,2.38c-6.11,1.08-11.43,4.47-14.99,9.55s-4.92,11.24-3.85,17.35L48.34,431 c1.98,11.25,11.81,19.19,22.86,19.19c1.33,0,2.69-0.12,4.04-0.35l87.23-15.38c1.9-0.34,3.17-2.15,2.84-4.05 c-0.34-1.9-2.15-3.18-4.05-2.84l-87.23,15.38c-8.81,1.55-17.24-4.35-18.79-13.16L29.73,285.13l72.82-12.84 c1.9-0.34,3.17-2.15,2.84-4.05c-0.34-1.9-2.15-3.17-4.05-2.84l-72.82,12.84l-8.76-49.68c-0.75-4.27,0.2-8.57,2.69-12.12 c2.49-3.55,6.2-5.92,10.47-6.67l405.07-71.42c8.81-1.55,17.24,4.35,18.79,13.16l8.76,49.68l-73.13,12.9 c-1.9,0.34-3.17,2.15-2.84,4.05c0.3,1.7,1.78,2.89,3.44,2.89c0.2,0,0.41-0.02,0.61-0.05l73.13-12.9l25.51,144.65 c0.75,4.27-0.2,8.57-2.69,12.12s-6.2,5.92-10.47,6.67l-110.96,19.56c15.74-22.49,23.99-49.28,23.51-77.26 c-1.23-71.57-59.83-128.95-131.13-128.95c-0.76,0-1.52,0.01-2.28,0.02c-35.04,0.6-67.74,14.81-92.09,40.01 c-24.35,25.2-37.43,58.38-36.82,93.41c1.23,71.57,59.83,128.95,131.13,128.95c0.76,0,1.52-0.01,2.28-0.02 c35.04-0.6,67.74-14.81,92.09-40.01c2.48-2.57,4.84-5.22,7.08-7.95l118.4-20.88c6.11-1.08,11.43-4.47,14.99-9.55 C498.86,363.79,500.22,357.63,499.14,351.52z M52.1,199.27l-2.07-11.72c-1.01-5.7,2.82-11.16,8.52-12.16l39.53-6.97 c5.7-1.01,11.16,2.82,12.16,8.52l2.07,11.72L52.1,199.27z M349.79,402.38c-23.05,23.86-54.01,37.31-87.17,37.88 c-0.72,0.01-1.44,0.02-2.16,0.02c-67.49,0-122.97-54.32-124.14-122.07c-0.57-33.17,11.81-64.57,34.86-88.43 c23.05-23.86,54.01-37.31,87.17-37.88c0.72-0.01,1.44-0.02,2.16-0.02c67.49,0,122.98,54.32,124.14,122.07 C385.22,347.12,372.84,378.52,349.79,402.38z"/><path d="M440.13,439.27l-23.86-10.44c-1.77-0.77-3.83,0.03-4.61,1.8c-0.78,1.77,0.03,3.83,1.8,4.61l23.86,10.44 c0.46,0.2,0.93,0.29,1.4,0.29c1.35,0,2.63-0.78,3.21-2.1C442.71,442.11,441.9,440.04,440.13,439.27z"/><path d="M352.89,468.6c-0.46-1.88-2.36-3.02-4.24-2.56c-1.88,0.46-3.02,2.36-2.56,4.24l6.26,25.28c0.39,1.59,1.82,2.66,3.39,2.66 c0.28,0,0.56-0.03,0.84-0.1c1.88-0.46,3.02-2.36,2.56-4.24L352.89,468.6z"/><path d="M54.75,80.09l24.7,8.25c0.37,0.12,0.74,0.18,1.11,0.18c1.46,0,2.83-0.93,3.32-2.39c0.61-1.83-0.38-3.82-2.21-4.43 l-24.7-8.25c-1.84-0.61-3.82,0.38-4.43,2.21C51.93,77.5,52.92,79.48,54.75,80.09z"/><path d="M139,43.03c0.5,1.45,1.86,2.36,3.31,2.36c0.38,0,0.76-0.06,1.14-0.19c1.83-0.63,2.8-2.62,2.16-4.45l-8.51-24.61 c-0.63-1.83-2.62-2.8-4.45-2.16c-1.83,0.63-2.8,2.62-2.16,4.45L139,43.03z"/></g></svg>